<?xml version="1.0" standalone="no"?><!DOCTYPE svg PUBLIC "-//W3C//DTD SVG 1.1//EN" "http://www.w3.org/Graphics/SVG/1.1/DTD/svg11.dtd"><svg t="1563588652007" class="icon" viewBox="0 0 1024 1024" version="1.1" xmlns="http://www.w3.org/2000/svg" p-id="2851" xmlns:xlink="http://www.w3.org/1999/xlink" width="200" height="200"><defs><style type="text/css"></style></defs><path d="M579.7 917V668.2c0-12.3-10.1-22.3-22.3-22.3h-193c-12.3 0-22.3 10.1-22.3 22.3V917" fill="#FFFFFF" p-id="2852"></path><path d="M587.5 917h-15.6V668.2c0-8-6.5-14.5-14.5-14.5h-193c-8 0-14.5 6.5-14.5 14.5V917h-15.6V668.2c0-16.6 13.5-30.2 30.2-30.2h193c16.6 0 30.2 13.5 30.2 30.2V917z" fill="#436AFB" p-id="2853"></path><path d="M552 673.2c57.4 0 104.4-54 104.4-120.1V446c0-66-47-120.1-104.4-120.1H395.2l-104.4 45.7v181.6c0 66 47 120.1 104.4 120.1" fill="#FFFFFF" p-id="2854"></path><path d="M552 681.1v-15.6c53.3 0 96.6-50.4 96.6-112.3V446c0-61.9-43.3-112.3-96.6-112.3H396.9l-98.2 43v176.5c0 61.9 43.3 112.3 96.6 112.3v15.6c-61.9 0-112.2-57.4-112.2-127.9V366.5L395.2 318H552c61.9 0 112.2 57.4 112.2 127.9v107.2c0.1 70.6-50.3 128-112.2 128z" fill="#436AFB" p-id="2855"></path><path d="M541.5 495.2V296.1c0-8.6 7-15.6 15.6-15.6H577c8.6 0 15.6 7 15.6 15.6v199.1c0 8.6-7 15.6-15.6 15.6h-19.9c-8.5 0-15.6-7-15.6-15.6z" fill="#E0E7FC" p-id="2856"></path><path d="M577.1 518.6h-19.9c-12.9 0-23.5-10.5-23.5-23.5v-199c0-12.9 10.5-23.5 23.5-23.5h19.9c12.9 0 23.5 10.5 23.5 23.5v199.1c-0.1 12.9-10.6 23.4-23.5 23.4z m-19.9-230.3c-4.3 0-7.8 3.5-7.8 7.8v199.1c0 4.3 3.5 7.8 7.8 7.8h19.9c4.3 0 7.8-3.5 7.8-7.8V296.1c0-4.3-3.5-7.8-7.8-7.8h-19.9z" fill="#436AFB" p-id="2857"></path><path d="M592.7 495.2V296.1c0-8.6 7-15.6 15.6-15.6h19.9c8.6 0 15.6 7 15.6 15.6v199.1c0 8.6-7 15.6-15.6 15.6h-19.9c-8.6 0-15.6-7-15.6-15.6z" fill="#E0E7FC" p-id="2858"></path><path d="M628.3 518.6h-19.9c-12.9 0-23.5-10.5-23.5-23.5v-199c0-12.9 10.5-23.5 23.5-23.5h19.9c12.9 0 23.5 10.5 23.5 23.5v199.1c-0.1 12.9-10.6 23.4-23.5 23.4z m-20-230.3c-4.3 0-7.8 3.5-7.8 7.8v199.1c0 4.3 3.5 7.8 7.8 7.8h19.9c4.3 0 7.8-3.5 7.8-7.8V296.1c0-4.3-3.5-7.8-7.8-7.8h-19.9z" fill="#436AFB" p-id="2859"></path><path d="M643.9 498V293.3c0-7 5.8-12.8 12.8-12.8h64l76.8 51.2v128l-76.8 51.2h-64c-7-0.1-12.8-5.8-12.8-12.9z" fill="#E0E7FC" p-id="2860"></path><path d="M723.1 518.6h-66.4c-11.4 0-20.6-9.2-20.6-20.6V293.3c0-11.4 9.3-20.6 20.6-20.6h66.4l82.2 54.8v136.4l-82.2 54.7z m-66.4-230.3c-2.7 0-5 2.3-5 5V498c0 2.7 2.3 5 5 5h61.6l71.3-47.6V335.8l-71.3-47.6h-61.6z" fill="#436AFB" p-id="2861"></path><path d="M490.3 495.2V296.1c0-8.6 7-15.6 15.6-15.6h19.9c8.6 0 15.6 7 15.6 15.6v199.1c0 8.6-7 15.6-15.6 15.6H506c-8.6 0-15.7-7-15.7-15.6z" fill="#E0E7FC" p-id="2862"></path><path d="M525.9 518.6H506c-12.9 0-23.5-10.5-23.5-23.5v-199c0-12.9 10.5-23.5 23.5-23.5h19.9c12.9 0 23.5 10.5 23.5 23.5v199.1c-0.1 12.9-10.6 23.4-23.5 23.4zM506 288.3c-4.3 0-7.8 3.5-7.8 7.8v199.1c0 4.3 3.5 7.8 7.8 7.8h19.9c4.3 0 7.8-3.5 7.8-7.8V296.1c0-4.3-3.5-7.8-7.8-7.8H506z" fill="#436AFB" p-id="2863"></path><path d="M439.1 495.2V296.1c0-8.6 7-15.6 15.6-15.6h19.9c8.6 0 15.6 7 15.6 15.6v199.1c0 8.6-7 15.6-15.6 15.6h-19.9c-8.5 0-15.6-7-15.6-15.6z" fill="#E0E7FC" p-id="2864"></path><path d="M474.7 518.6h-19.9c-12.9 0-23.5-10.5-23.5-23.5v-199c0-12.9 10.5-23.5 23.5-23.5h19.9c12.9 0 23.5 10.5 23.5 23.5v199.1c-0.1 12.9-10.6 23.4-23.5 23.4z m-19.9-230.3c-4.3 0-7.8 3.5-7.8 7.8v199.1c0 4.3 3.5 7.8 7.8 7.8h19.9c4.3 0 7.8-3.5 7.8-7.8V296.1c0-4.3-3.5-7.8-7.8-7.8h-19.9z" fill="#436AFB" p-id="2865"></path><path d="M387.9 495.2V296.1c0-8.6 7-15.6 15.6-15.6h19.9c8.6 0 15.6 7 15.6 15.6v199.1c0 8.6-7 15.6-15.6 15.6h-19.9c-8.5 0-15.6-7-15.6-15.6z" fill="#E0E7FC" p-id="2866"></path><path d="M423.5 518.6h-19.9c-12.9 0-23.5-10.5-23.5-23.5v-199c0-12.9 10.5-23.5 23.5-23.5h19.9c12.9 0 23.5 10.5 23.5 23.5v199.1c0 12.9-10.6 23.4-23.5 23.4z m-19.9-230.3c-4.3 0-7.8 3.5-7.8 7.8v199.1c0 4.3 3.5 7.8 7.8 7.8h19.9c4.3 0 7.8-3.5 7.8-7.8V296.1c0-4.3-3.5-7.8-7.8-7.8h-19.9z" fill="#436AFB" p-id="2867"></path><path d="M336.7 495.2V296.1c0-8.6 7-15.6 15.6-15.6h19.9c8.6 0 15.6 7 15.6 15.6v199.1c0 8.6-7 15.6-15.6 15.6h-19.9c-8.5 0-15.6-7-15.6-15.6z" fill="#E0E7FC" p-id="2868"></path><path d="M372.3 518.6h-19.9c-12.9 0-23.5-10.5-23.5-23.5v-199c0-12.9 10.5-23.5 23.5-23.5h19.9c12.9 0 23.5 10.5 23.5 23.5v199.1c0 12.9-10.6 23.4-23.5 23.4z m-19.9-230.3c-4.3 0-7.8 3.5-7.8 7.8v199.1c0 4.3 3.5 7.8 7.8 7.8h19.9c4.3 0 7.8-3.5 7.8-7.8V296.1c0-4.3-3.5-7.8-7.8-7.8h-19.9z" fill="#436AFB" p-id="2869"></path><path d="M285.6 495.2V296.1c0-8.6 7-15.6 15.6-15.6h19.9c8.6 0 15.6 7 15.6 15.6v199.1c0 8.6-7 15.6-15.6 15.6h-19.9c-8.6 0-15.6-7-15.6-15.6z" fill="#E0E7FC" p-id="2870"></path><path d="M321.1 518.6h-19.9c-12.9 0-23.5-10.5-23.5-23.5v-199c0-12.9 10.5-23.5 23.5-23.5h19.9c12.9 0 23.5 10.5 23.5 23.5v199.1c0 12.9-10.6 23.4-23.5 23.4z m-19.9-230.3c-4.3 0-7.8 3.5-7.8 7.8v199.1c0 4.3 3.5 7.8 7.8 7.8h19.9c4.3 0 7.8-3.5 7.8-7.8V296.1c0-4.3-3.5-7.8-7.8-7.8h-19.9z" fill="#436AFB" p-id="2871"></path><path d="M157.6 495.2V296.1c0-8.6 7-15.6 15.6-15.6h96.7c8.6 0 15.6 7 15.6 15.6v199.1c0 8.6-7 15.6-15.6 15.6h-96.7c-8.6 0-15.6-7-15.6-15.6z" fill="#E0E7FC" p-id="2872"></path><path d="M269.9 518.6h-96.7c-12.9 0-23.5-10.5-23.5-23.5v-199c0-12.9 10.5-23.5 23.5-23.5h96.7c12.9 0 23.5 10.5 23.5 23.5v199.1c0 12.9-10.5 23.4-23.5 23.4z m-96.7-230.3c-4.3 0-7.8 3.5-7.8 7.8v199.1c0 4.3 3.5 7.8 7.8 7.8h96.7c4.3 0 7.8-3.5 7.8-7.8V296.1c0-4.3-3.5-7.8-7.8-7.8h-96.7z" fill="#436AFB" p-id="2873"></path><path d="M797.5 331.7H846v128h-48.5z" fill="#FFFFFF" p-id="2874"></path><path d="M853.8 467.5h-64.1V323.8h64.1v143.7z m-48.5-15.7h32.8V339.5h-32.8v112.3z" fill="#436AFB" p-id="2875"></path><path d="M848.7 318.9h48.5v153.6h-48.5z" fill="#FE2973" p-id="2876"></path><path d="M813.9 331.7h15.6v25.6h-15.6z" fill="#436AFB" p-id="2877"></path><path d="M813.9 370h15.6v12.8h-15.6z" fill="#436AFB" p-id="2878"></path><path d="M813.9 395.6h15.6v64h-15.6z" fill="#436AFB" p-id="2879"></path><path d="M656.5 534.4v-50.8c0-33-27-60-60-60H446.2c-14.1 0-25.6 11.5-25.6 25.6v25.2c0 33 27 60 60 60h175.9z" fill="#FFFFFF" p-id="2880"></path><path d="M496.4 591.2h-15.6c0-19.6 8.7-37.1 22.5-49h-22.6c-37.4 0-67.8-30.4-67.8-67.8v-25.2c0-18.4 15-33.4 33.4-33.4h150.3c37.4 0 67.8 30.4 67.8 67.8v64.3h-15.6v-64.3c0-28.8-23.4-52.2-52.2-52.2H446.2c-9.8 0-17.8 8-17.8 17.8v25.2c0 28.8 23.4 52.2 52.2 52.2h64.7v15.6c-27 0-48.9 22-48.9 49z" fill="#436AFB" p-id="2881"></path><path d="M565 335.3v-33.5c0-25 20.4-45.4 45.4-45.4h0.5c25 0 45.4 20.4 45.4 45.4v33.5c0 25-20.4 45.4-45.4 45.4h-0.5c-24.9 0-45.4-20.4-45.4-45.4z" fill="#FFFFFF" p-id="2882"></path><path d="M611 388.5c-29.9 0-53.8-23.9-53.8-53.3v-33.4c0-29.4 23.9-53.3 53.2-53.3 29.9 0 53.8 23.9 53.8 53.3v33.4c0.1 29.4-23.8 53.3-53.2 53.3z m0-124.3c-21.3 0-38.1 16.9-38.1 37.6v33.4c0 20.7 16.9 37.6 37.6 37.6 21.3 0 38.2-16.9 38.2-37.6v-33.4c-0.1-20.7-16.9-37.6-37.7-37.6z" fill="#436AFB" p-id="2883"></path><path d="M473.6 298.7v-33.5c0-25 20.4-45.4 45.4-45.4h0.5c25 0 45.4 20.4 45.4 45.4v33.5c0 25-20.4 45.4-45.4 45.4h-0.5c-24.9 0.1-45.4-20.4-45.4-45.4z" fill="#FFFFFF" p-id="2884"></path><path d="M519.6 352c-29.9 0-53.8-23.9-53.8-53.3v-33.5c0-29.4 23.9-53.3 53.3-53.3 29.9 0 53.8 23.9 53.8 53.3v33.5c0 29.4-23.9 53.3-53.3 53.3z m0-124.3c-21.3 0-38.2 16.9-38.2 37.6v33.5c0 20.7 16.9 37.6 37.6 37.6 21.3 0 38.2-16.9 38.2-37.6v-33.5c0-20.8-16.8-37.6-37.6-37.6z" fill="#436AFB" p-id="2885"></path><path d="M382.2 298.7v-33.5c0-25 20.4-45.4 45.4-45.4h0.5c25 0 45.4 20.4 45.4 45.4v33.5c0 25-20.4 45.4-45.4 45.4h-0.5c-24.9 0.1-45.4-20.4-45.4-45.4z" fill="#FFFFFF" p-id="2886"></path><path d="M428.2 352c-29.9 0-53.8-23.9-53.8-53.3v-33.5c0-29.4 23.9-53.3 53.2-53.3 29.9 0 53.8 23.9 53.8 53.3v33.5c0.1 29.4-23.8 53.3-53.2 53.3z m0-124.3c-21.3 0-38.2 16.9-38.2 37.6v33.5c0 20.7 16.9 37.6 37.6 37.6 21.3 0 38.2-16.9 38.2-37.6v-33.5c0-20.8-16.9-37.6-37.6-37.6z" fill="#436AFB" p-id="2887"></path><path d="M290.8 313.3v-37.1c0-25 20.4-45.4 45.4-45.4h0.5c25 0 45.4 20.4 45.4 45.4v37.1c0 25-20.4 45.4-45.4 45.4h-0.5c-24.9 0.1-45.4-20.4-45.4-45.4z" fill="#FFFFFF" p-id="2888"></path><path d="M336.8 366.6c-29.9 0-53.8-23.9-53.8-53.3v-37.1c0-29.4 23.9-53.3 53.3-53.3 29.9 0 53.8 23.9 53.8 53.3v37.1c-0.1 29.4-23.9 53.3-53.3 53.3z m0-128c-21.3 0-38.2 16.9-38.2 37.6v37.1c0 20.7 16.9 37.6 37.6 37.6 21.3 0 38.2-16.9 38.2-37.6v-37.1c0-20.7-16.9-37.6-37.6-37.6z" fill="#436AFB" p-id="2889"></path><path d="M188.2 280.5h15.6v76.8h-15.6z" fill="#436AFB" p-id="2890"></path><path d="M188.2 370h15.6v25.6h-15.6z" fill="#436AFB" p-id="2891"></path><path d="M188.2 408.4h15.6v102.4h-15.6z" fill="#436AFB" p-id="2892"></path></svg>